<?xml version="1.0" encoding="UTF-8"?>
<svg version="1.1" xmlns="http://www.w3.org/2000/svg" width="384" height="380">
<path d="M0 0 C2.38671875 1.75 2.38671875 1.75 4.6875 4 C8.10948653 7.24349245 11.55954089 10.31502516 15.25 13.25 C21.01378293 17.91007982 26.38763622 22.93574521 31.7890625 28.00390625 C34.17359485 30.23914733 36.5876206 32.4270028 39.0625 34.5625 C49.10290755 43.23772058 58.64324897 52.45661592 68.02197266 61.83666992 C69.75795956 63.57044943 71.5018511 65.29601538 73.24609375 67.02148438 C98.25352628 91.90271274 98.25352628 91.90271274 100.6875 103.1875 C99.86603542 107.74289452 99.00615765 108.23465298 95.375 110.875 C91.58232554 113.41483905 88.53580559 114.48124218 84 115 C82.97916667 113.6875 81.95833333 112.375 80.9375 111.0625 C80.30328125 110.24910156 79.6690625 109.43570313 79.015625 108.59765625 C77.68473522 106.88245915 76.36163383 105.16118685 75.046875 103.43359375 C74.43328125 102.63050781 73.8196875 101.82742187 73.1875 101 C72.62417969 100.2575 72.06085938 99.515 71.48046875 98.75 C70.10100449 96.88633088 70.10100449 96.88633088 68 96 C65.56889688 96.99947005 65.56889688 96.99947005 62.8125 98.54296875 C61.73266846 99.11708496 60.65283691 99.69120117 59.5402832 100.28271484 C58.96315582 100.59343933 58.38602844 100.90416382 57.79141235 101.2243042 C43.79152187 108.75168097 29.50057721 115.48820856 15 122 C14.96036133 122.92337158 14.92072266 123.84674316 14.87988281 124.7980957 C14.72360843 128.226419 14.55024387 131.65298804 14.36523438 135.07983398 C14.28870615 136.56256843 14.21899024 138.0456709 14.15625 139.52905273 C14.06482106 141.66263274 13.94888699 143.79368522 13.828125 145.92578125 C13.7652832 147.20880127 13.70244141 148.49182129 13.63769531 149.8137207 C13 153 13 153 11.13720703 154.85546875 C8.36043128 156.34250607 5.56242555 157.54745023 2.625 158.6875 C1.52414063 159.12449219 0.42328125 159.56148437 -0.7109375 160.01171875 C-4.05952631 161.01788617 -6.53138675 161.42483015 -10 161 C-12.67368295 156.98947557 -12.14216512 153.60664502 -11.96777344 148.97021484 C-11.91431201 147.04066 -11.86086635 145.11110472 -11.80743408 143.18154907 C-11.77499855 142.15134266 -11.74256302 141.12113625 -11.70914459 140.05971146 C-11.098852 120.33982153 -10.93957756 100.64168857 -11.078125 80.9140625 C-11.09144552 78.56476065 -11.10434399 76.21545638 -11.11682129 73.8661499 C-11.16936522 64.3272616 -11.22630896 54.78856393 -11.32226562 45.25 C-11.38139293 39.28669781 -11.41651381 33.32367849 -11.43544769 27.36011887 C-11.44715899 25.11849796 -11.46792269 22.87690465 -11.49808502 20.63545609 C-11.53878918 17.55168564 -11.54895878 14.46925727 -11.55175781 11.38525391 C-11.57130524 10.47249191 -11.59085266 9.55972992 -11.61099243 8.61930847 C-11.5959201 6.30458643 -11.54403762 4.24956596 -11 2 C-7.27969869 -1.31543673 -4.7005644 -1.47855237 0 0 Z M11 41 C11.2626795 47.49226711 11.5296809 53.9843466 11.79956055 60.47631836 C11.89070425 62.68070537 11.98089114 64.88513217 12.07006836 67.08959961 C12.19908645 70.27468867 12.33164795 73.45961447 12.46484375 76.64453125 C12.50343002 77.61582474 12.5420163 78.58711823 12.58177185 79.58784485 C12.85781589 86.08140092 13.35574767 92.53274505 14 99 C18.56210918 97.59329528 22.78367796 95.76170342 27.04296875 93.62890625 C27.69324539 93.30591049 28.34352203 92.98291473 29.01350403 92.65013123 C30.37842397 91.97052657 31.7423181 91.28885813 33.10522461 90.60522461 C35.18829987 89.56209946 37.27649985 88.52978412 39.36523438 87.49804688 C40.69563637 86.83398179 42.02572565 86.16928975 43.35546875 85.50390625 C43.97737595 85.19755753 44.59928314 84.8912088 45.24003601 84.57557678 C48.27098001 83.04385853 50.78998201 81.60994022 53 79 C50.01669981 75.99168504 47.02990259 72.98689606 44.04003906 69.98510742 C43.02673848 68.96682708 42.01434288 67.94764526 41.00292969 66.92749023 C35.72039515 61.60049872 30.42298769 56.34685887 24.71582031 51.46850586 C21.42420255 48.65133442 18.27817197 45.66815017 15.1015625 42.72265625 C13.19510178 40.78868598 13.19510178 40.78868598 11 41 Z " fill="#F49B00" transform="translate(221,132)"/>
<path d="M0 0 C8.1026725 4.23007167 13.4259922 12.01274704 16.1875 20.5625 C20.03963627 35.32471348 16.91927606 51.46447058 9.91796875 64.671875 C1.62011575 78.5328484 -10.39736839 87.30283701 -26.0625 91.4375 C-37.68219837 93.78096858 -50.00648699 93.96550651 -60.8125 88.5625 C-60.8125 87.2425 -60.8125 85.9225 -60.8125 84.5625 C-59.79671875 84.52511719 -58.7809375 84.48773438 -57.734375 84.44921875 C-41.17910765 83.71616654 -27.77664903 80.71073369 -15.9765625 68.22265625 C-5.37189558 55.18695557 0.44985927 39.19062091 -0.390625 22.37109375 C-1.07779645 16.16746256 -2.49785121 11.74855719 -7.0625 7.4375 C-12.51384044 5.70298259 -17.73021208 7.18017754 -22.8125 9.5625 C-22.049375 10.305 -21.28625 11.0475 -20.5 11.8125 C-16.22888168 16.18294665 -14.02772026 19.02290097 -13.5 25.25 C-13.6020297 30.80041571 -15.55519235 35.08964042 -19.28515625 39.17578125 C-23.38502829 42.61657221 -27.15870605 43.26970363 -32.44140625 42.98828125 C-35.98861304 42.35130342 -38.15690825 40.95253257 -40.8125 38.5625 C-43.73848334 33.80777708 -43.58141025 28.96546759 -42.8125 23.5625 C-39.50219518 13.88716053 -33.67807143 5.85717995 -24.5 1.125 C-16.87321755 -2.32484277 -7.93463114 -3.04645524 0 0 Z " fill="#F49B00" transform="translate(104.8125,68.4375)"/>
<path d="M0 0 C3.83961134 3.14150019 4.91222057 5.6522417 5.625 10.5625 C5.48373781 14.94162802 3.49441913 17.23916064 0.5703125 20.33984375 C-1.57283163 22.25534822 -2.79891527 22.67175174 -5.6875 23 C-9.79517229 22.60503151 -11.76676614 21.2817368 -14.9375 18.6875 C-17.52109065 15.28185778 -17.16828395 11.84161114 -16.9375 7.6875 C-16.6075 7.0275 -16.2775 6.3675 -15.9375 5.6875 C-20.09203202 7.49381827 -22.15760276 8.50560551 -23.9375 12.6875 C-11.21043886 24.47910984 2.34334338 35.08252167 16.0625 45.6875 C19.20860532 41.71152061 19.6225916 39.38598981 19.49609375 34.36328125 C18.76802412 29.87023896 16.52884137 26.43957344 14.0625 22.6875 C13.5675 21.6975 13.5675 21.6975 13.0625 20.6875 C14.0525 19.3675 15.0425 18.0475 16.0625 16.6875 C21.75682117 19.10327262 24.78932395 24.08327627 27.4375 29.5 C29.13770224 38.17103141 28.34456371 44.94537588 24.0625 52.6875 C24.784375 52.935 25.50625 53.1825 26.25 53.4375 C29.30963266 54.79733674 31.5298738 56.51667754 34.0625 58.6875 C32.3125 63.5625 32.3125 63.5625 30.0625 64.6875 C27.4609375 63.47265625 27.4609375 63.47265625 24.4375 61.75 C23.43460937 61.18410156 22.43171875 60.61820312 21.3984375 60.03515625 C20.24214844 59.36806641 20.24214844 59.36806641 19.0625 58.6875 C18.58941406 59.08582031 18.11632812 59.48414063 17.62890625 59.89453125 C9.02223792 66.78993219 1.05542729 68.72212845 -9.9375 67.6875 C-20.84532628 65.79869891 -28.47257883 59.44960128 -34.9375 50.6875 C-40.4567715 41.48871417 -41.66555306 31.61480439 -39.04296875 21.1015625 C-38.09050345 18.26772583 -37.02435344 15.47256194 -35.9375 12.6875 C-38.9075 9.7175 -41.8775 6.7475 -44.9375 3.6875 C-42.9375 -1.3125 -42.9375 -1.3125 -41.078125 -2.37109375 C-38.9375 -2.3125 -38.9375 -2.3125 -36.796875 -0.66015625 C-36.10078125 0.09394531 -35.4046875 0.84804687 -34.6875 1.625 C-33.98109375 2.37652344 -33.2746875 3.12804687 -32.546875 3.90234375 C-32.01578125 4.49144531 -31.4846875 5.08054688 -30.9375 5.6875 C-30.22464844 5.20539063 -29.51179687 4.72328125 -28.77734375 4.2265625 C-18.65984707 -2.44581081 -11.45510123 -5.11823672 0 0 Z M-28.9375 18.6875 C-28.7596881 25.67065837 -27.1240824 30.13200782 -22.9375 35.6875 C-22.51597656 36.28433594 -22.09445313 36.88117188 -21.66015625 37.49609375 C-15.87812146 45.02111874 -6.98109631 50.12514771 2.0625 52.6875 C4.46122881 52.88891998 6.64978495 52.83829469 9.0625 52.6875 C9.0625 51.6975 9.0625 50.7075 9.0625 49.6875 C7.04077995 47.89310979 5.0408956 46.29071515 2.875 44.6875 C1.58307521 43.70256398 0.29274695 42.71553079 -0.99609375 41.7265625 C-1.98391846 40.97101074 -1.98391846 40.97101074 -2.99169922 40.20019531 C-5.95500143 37.89647881 -8.8283362 35.49358595 -11.6875 33.0625 C-12.21786865 32.61221436 -12.7482373 32.16192871 -13.29467773 31.69799805 C-17.64854615 27.97773755 -21.89677116 24.1492035 -26.109375 20.26953125 C-27.66059223 18.57843721 -27.66059223 18.57843721 -28.9375 18.6875 Z " fill="#F49B00" transform="translate(160.9375,196.3125)"/>
<path d="M0 0 C1.64162109 0.17692383 1.64162109 0.17692383 3.31640625 0.35742188 C10.67058497 1.20598096 18.11075485 2.23001506 25.125 4.6875 C26.6033226 7.64414519 26.18532783 10.42979737 26.125 13.6875 C23.155 14.3475 20.185 15.0075 17.125 15.6875 C17.846875 16.368125 18.56875 17.04875 19.3125 17.75 C24.22478168 22.66228168 27.90959345 27.40255018 28.375 34.5 C28.27653982 38.62017972 27.69818066 41.33456763 25.125 44.6875 C19.05908167 48.19395912 12.80345161 48.18916368 6.125 46.6875 C2.38910528 45.51173618 -1.25024645 44.16910078 -4.875 42.6875 C-3.75910267 45.55695029 -2.5685018 47.29488659 0.13330078 48.82446289 C6.57430917 51.52875724 13.15549563 52.87050075 20 54.125 C33.49316585 56.78352391 44.77592289 60.15469596 54.625 70.25 C56.34034866 73.03744158 56.64615498 74.47371094 56.125 77.6875 C53.56596217 80.24653783 52.50378406 80.04318242 48.9375 80.125 C34.44755497 79.81450118 15.69182998 71.77050077 5.125 61.6875 C4.63773438 60.43453125 4.63773438 60.43453125 4.140625 59.15625 C2.76560948 55.81390459 0.96878507 54.97952851 -2.125 53.1875 C-8.6842861 49.21763142 -14.17278389 45.66475343 -17.875 38.6875 C-17.83246094 37.73359375 -17.78992188 36.7796875 -17.74609375 35.796875 C-17.90772454 31.8981445 -18.98905013 30.74337389 -21.5625 27.875 C-27.29660965 21.09370366 -31.875 14.82282257 -31.875 5.6875 C-30.58578572 2.19903782 -29.61631959 1.06720028 -26.3125 -0.625 C-17.63213548 -2.3610729 -8.70659823 -1.02340716 0 0 Z M-16.875 15.6875 C-16.23918022 22.36360772 -13.40681622 26.47840582 -8.5 30.875 C-4.19335753 34.35871716 -0.31667258 36.79715592 5.3125 37.1875 C9.14183025 37.05569484 9.14183025 37.05569484 11.3125 34.6875 C12.24926993 31.22865718 11.90952605 29.0862865 10.46484375 25.8125 C6.16633175 18.9950349 -0.20473089 14.7329051 -7.875 12.6875 C-12.00916281 12.12375053 -13.77555425 12.93243711 -16.875 15.6875 Z M15.125 61.6875 C18.07786815 65.9120413 20.74899247 67.84392437 25.4375 69.9375 C26.52675781 70.43765625 27.61601563 70.9378125 28.73828125 71.453125 C32.25290884 72.7341196 35.40148193 73.37909655 39.125 73.6875 C39.785 73.3575 40.445 73.0275 41.125 72.6875 C39.94916556 69.02934841 37.79178809 67.41457782 34.4609375 65.63671875 C28.35743293 63.15653211 21.70192844 61.6875 15.125 61.6875 Z " fill="#F49A00" transform="translate(82.875,287.3125)"/>
<path d="M0 0 C3.86081637 0.22061808 6.51299585 1.59479086 9.38671875 4.1640625 C18.21808237 14.2142826 20.98714242 25.89081438 22.375 38.80078125 C23.02773047 42.14194534 24.15980218 44.17469629 26 47 C26 47.66 26 48.32 26 49 C27.03125 48.7525 28.0625 48.505 29.125 48.25 C33 48 33 48 36.1875 49.4375 C40.70951846 53.55756126 43.40132125 58.86354282 44 65 C44.1878125 69.42213064 44.0879893 73.50406033 43.3125 77.875 C42.80804193 81.33803649 43.39603695 83.79621156 44.4375 87.125 C46.39471552 93.61280701 47.05359087 100.28024719 46 107 C43.69195146 110.62622282 42.71620831 111.77862652 38.5625 113.0625 C34.26668421 112.98713481 32.94780329 112.03450339 30 109 C28.47153339 105.94306678 28.76757555 103.37015453 29 100 C30.5 97.5625 30.5 97.5625 32 96 C34.31 96.33 36.62 96.66 39 97 C39.66 99.31 40.32 101.62 41 104 C41.22084624 97.90218999 41.01167675 92.78357065 39 87 C38.236875 87.495 37.47375 87.99 36.6875 88.5 C31.653828 90.54759539 27.35557357 91.04684016 22 90 C17.50188495 87.5665935 14.17256856 84.11195809 12.0625 79.4375 C9.78448747 71.57612343 9.35721461 63.70451233 11 55.71875 C14.05766342 40.41863229 11.59356827 32.40340824 3.32617188 19.32519531 C-0.00101554 13.49159205 -1.55662844 7.67954124 -1 1 C-0.67 0.67 -0.34 0.34 0 0 Z M7 9 C6.36273467 16.4878676 8.83879271 22.05835674 13.25 28.0625 C13.8275 28.701875 14.405 29.34125 15 30 C14.09077769 21.97984496 12.47555395 15.76457772 8 9 C7.67 9 7.34 9 7 9 Z M21 52 C18.71801509 58.84595473 18.62585889 69.27018098 21.75 75.8125 C24.28612317 79.64831366 24.28612317 79.64831366 28 82 C31.68815293 81.77131906 31.68815293 81.77131906 35 81 C36.25348607 78.04893565 36.01044806 77.02593537 34.78515625 73.984375 C34.21667969 72.91703125 33.64820313 71.8496875 33.0625 70.75 C32.21365234 69.13351563 32.21365234 69.13351563 31.34765625 67.484375 C30.90292969 66.66453125 30.45820313 65.8446875 30 65 C29.67 65 29.34 65 29 65 C28.69100727 69.5318934 29.04787993 71.55585992 32 75 C32 75.66 32 76.32 32 77 C29.75 77 29.75 77 27 76 C21.80630859 68.9814981 22.6098332 61.32355833 23 53 C22.34 52.67 21.68 52.34 21 52 Z M32 59 C34.31 63.95 36.62 68.9 39 74 C39.33 74 39.66 74 40 74 C40.34433027 68.37593889 39.79273401 64.81505863 37 60 C35.35 59.67 33.7 59.34 32 59 Z " fill="#F49B00" transform="translate(303,112)"/>
<path d="M0 0 C0.75 2.625 0.75 2.625 1 5 C0.01 5.66 -0.98 6.32 -2 7 C-1.48953125 7.90234375 -0.9790625 8.8046875 -0.453125 9.734375 C4.72660788 19.10220887 9.18310267 28.7182733 13.375 38.5625 C14.14215332 40.36315918 14.14215332 40.36315918 14.92480469 42.20019531 C16.30072394 45.45991123 17.65839242 48.72602923 19 52 C19.33547852 52.81710449 19.67095703 53.63420898 20.01660156 54.47607422 C21.3770165 57.92007204 22 60.23715641 22 64 C19.03 64.495 19.03 64.495 16 65 C12.19187768 57.66905775 8.90623349 50.19342963 5.75 42.5625 C1.950311 33.45624789 -2.0147113 24.47193324 -6.35839844 15.61157227 C-9 10.19141975 -9 10.19141975 -9 8 C-11.31 8.66 -13.62 9.32 -16 10 C-15.71914551 10.55010742 -15.43829102 11.10021484 -15.14892578 11.66699219 C-9.14841269 23.53169841 -3.84025253 35.48543388 0.625 48 C1.05022949 49.18561523 1.47545898 50.37123047 1.91357422 51.59277344 C5.66264941 62.34536146 5.66264941 62.34536146 6 68 C5 69 5 69 2.4375 69.0625 C1.633125 69.041875 0.82875 69.02125 0 69 C-2.77339503 63.13320282 -5.08452118 57.17403386 -7.25 51.0625 C-7.52021973 50.30461182 -7.79043945 49.54672363 -8.06884766 48.76586914 C-10 43.25121835 -10 43.25121835 -10 41 C-10.556875 41.10699219 -11.11375 41.21398437 -11.6875 41.32421875 C-17.46643907 42.23205884 -21.95230478 42.18045837 -27 39 C-32.43291388 34.14460059 -35.60644008 29.52281554 -36.24609375 22.171875 C-36.43723153 17.46872713 -36.36353489 13.88512842 -34.5625 9.5 C-28.71811422 3.79816022 -20.86675818 2.26412361 -13.1875 0.125 C-12.35081787 -0.11484619 -11.51413574 -0.35469238 -10.65209961 -0.60180664 C-9.45339233 -0.91879517 -9.45339233 -0.91879517 -8.23046875 -1.2421875 C-7.15381958 -1.53391846 -7.15381958 -1.53391846 -6.05541992 -1.83154297 C-3.42980385 -2.04673184 -2.16215287 -1.46947028 0 0 Z " fill="#F49B00" transform="translate(276,88)"/>
<path d="M0 0 C4.24472392 3.91820669 4.86756761 7.07973031 5.25 12.625 C5.1552895 19.87711832 2.47248159 26.71646188 -1 33 C0.65 33.66 2.3 34.32 4 35 C4.48223156 40.24130367 3.0676757 43.34100419 0.1875 47.5625 C-0.21122314 48.16312256 -0.60994629 48.76374512 -1.02075195 49.38256836 C-4.01763161 53.79510589 -7.26160366 57.97616139 -10.6875 62.0625 C-11.12618408 62.58593994 -11.56486816 63.10937988 -12.0168457 63.64868164 C-15.08199784 67.1923524 -18.28538995 70.16858395 -22 73 C-22.66 73 -23.32 73 -24 73 C-23.49639464 68.42627261 -21.77220736 66.08542837 -18.8125 62.625 C-18.00296875 61.66722656 -17.1934375 60.70945312 -16.359375 59.72265625 C-14.95588842 58.10306992 -13.55039127 56.4852169 -12.140625 54.87109375 C-9.65071345 52.01755651 -7.59409204 49.43285867 -6 46 C-6.969375 46.185625 -7.93875 46.37125 -8.9375 46.5625 C-9.948125 46.706875 -10.95875 46.85125 -12 47 C-12.495 46.505 -12.495 46.505 -13 46 C-12.90251788 40.05359089 -11.76044015 36.18390763 -8.9375 30.9375 C-6.21971919 25.87166034 -5.3438051 22.68702245 -6 17 C-7.78851129 16.21146182 -7.78851129 16.21146182 -10 16 C-15.07554879 19.04922605 -19.0212121 23.41283416 -21 29 C-22.0492998 33.57876275 -22.00041568 37.870039 -21.9375 42.5625 C-21.90968334 55.70587129 -23.51232752 66.99384842 -31 78 C-33.93098126 80.68805308 -36.90541814 83 -41 83 C-40.16349338 79.15729773 -38.612101 75.85646351 -36.9375 72.31640625 C-34.96797075 67.45002773 -34.85583777 62.64989812 -34.82421875 57.4609375 C-34.8010025 55.97785067 -34.77688445 54.49477774 -34.75195312 53.01171875 C-34.71705437 50.70156771 -34.68759909 48.39192391 -34.67407227 46.08154297 C-34.56750098 30.81725509 -31.92089649 19.8742716 -20.7578125 8.76953125 C-14.29499566 2.79632174 -9.05252263 -1.16806744 0 0 Z " fill="#F49A00" transform="translate(354,242)"/>
<path d="M0 0 C5.86992408 0.8767464 11.59368971 2.25705964 17.33203125 3.7578125 C18.11731201 3.95810059 18.90259277 4.15838867 19.71166992 4.36474609 C24.12969413 5.59416723 27.2219084 6.56539841 29.95703125 10.4453125 C31.56440513 13.66793586 32.90025009 16.96624086 34.20703125 20.3203125 C34.57054687 21.20589844 34.9340625 22.09148437 35.30859375 23.00390625 C38.8683575 31.98361105 38.8683575 31.98361105 37.95703125 36.4453125 C36.26282889 38.76753815 34.70883227 40.62337102 32.70703125 42.6328125 C32.21589844 43.15294922 31.72476563 43.67308594 31.21875 44.20898438 C24.46676284 51.25805897 24.46676284 51.25805897 20.94140625 51.6953125 C12.59798637 50.761783 1.39925089 49.30302956 -5.12109375 43.640625 C-6.71301322 41.32272028 -7.85473578 38.99557968 -9.04296875 36.4453125 C-9.75125718 35.18102276 -10.46951934 33.92229141 -11.1953125 32.66796875 C-11.95899511 31.32403072 -12.72071207 29.97897384 -13.48046875 28.6328125 C-13.84785156 27.98650879 -14.21523437 27.34020508 -14.59375 26.67431641 C-17.04674055 22.11417845 -17.04674055 22.11417845 -17.03125 19.3671875 C-15.56242937 16.51082485 -13.73849533 14.06212141 -11.79296875 11.5078125 C-10.64054688 9.97833984 -10.64054688 9.97833984 -9.46484375 8.41796875 C-3.16942488 0.69084978 -3.16942488 0.69084978 0 0 Z M3.95703125 13.4453125 C2.75130529 14.82543273 1.56797374 16.22514078 0.39453125 17.6328125 C-0.26675781 18.41011719 -0.92804688 19.18742187 -1.609375 19.98828125 C-3.28000427 22.32976043 -3.28000427 22.32976043 -2.89453125 24.92578125 C-1.27051249 29.7307909 0.33229325 33.78883424 3.95703125 37.4453125 C8.5567167 39.16443854 13.08598769 39.92484483 17.95703125 40.4453125 C20.73113525 38.01548871 23.09406286 35.64579665 24.95703125 32.4453125 C24.81321766 29.02254897 23.53439052 26.44538798 21.95703125 23.4453125 C21.57675781 22.4140625 21.19648438 21.3828125 20.8046875 20.3203125 C18.68482216 17.02174825 17.1191716 16.40378541 13.36132812 15.49609375 C12.32588867 15.28533203 12.32588867 15.28533203 11.26953125 15.0703125 C10.21668945 14.82474609 10.21668945 14.82474609 9.14257812 14.57421875 C7.41907557 14.17558551 5.68858372 13.80738374 3.95703125 13.4453125 Z " fill="#F49B00" transform="translate(148.04296875,282.5546875)"/>
<path d="M0 0 C0.2493357 1.60115576 0.47378648 3.20620159 0.6875 4.8125 C0.81511719 5.70582031 0.94273437 6.59914063 1.07421875 7.51953125 C1 10 1 10 -0.15625 11.6875 C-2.40149062 13.28580688 -4.60946604 14.21655214 -7.1875 15.1875 C-8.08855469 15.53167969 -8.98960937 15.87585938 -9.91796875 16.23046875 C-10.94857422 16.61138672 -10.94857422 16.61138672 -12 17 C-8.82449818 19.46446554 -5.63235056 21.26637814 -2 23 C-1.40756457 27.73948344 -1.75310632 30.18095619 -4.625 34.0625 C-7.53032041 37.61114135 -10.68082253 40.8388786 -14 44 C-13.38511719 43.7834375 -12.77023437 43.566875 -12.13671875 43.34375 C-11.32847656 43.0653125 -10.52023437 42.786875 -9.6875 42.5 C-8.88699219 42.2215625 -8.08648437 41.943125 -7.26171875 41.65625 C-5 41 -5 41 -2 41 C-2.49533073 48.55379364 -2.49533073 48.55379364 -4.6965332 50.5 C-7.23562588 52.15343777 -9.59339493 53.08015314 -12.46484375 54.04296875 C-13.51220703 54.39423828 -14.55957031 54.74550781 -15.63867188 55.10742188 C-16.72728516 55.46384766 -17.81589844 55.82027344 -18.9375 56.1875 C-20.02224609 56.55552734 -21.10699219 56.92355469 -22.22460938 57.30273438 C-23.27326172 57.65013672 -24.32191406 57.99753906 -25.40234375 58.35546875 C-26.35616943 58.67153076 -27.30999512 58.98759277 -28.29272461 59.31323242 C-30.98173046 59.99536548 -33.23962325 60.13195397 -36 60 C-36.4422777 57.03493422 -36.57565465 54.86949403 -34.87792969 52.30517578 C-33.27005105 50.48786757 -31.60106799 48.76793022 -29.875 47.0625 C-28.72523199 45.88801979 -27.57679007 44.71223991 -26.4296875 43.53515625 C-25.8634668 42.96039551 -25.29724609 42.38563477 -24.71386719 41.79345703 C-22.01385002 38.96805445 -19.51385561 35.99141177 -17 33 C-17.69150146 32.63237549 -18.38300293 32.26475098 -19.09545898 31.88598633 C-22.21929796 30.21245421 -25.32824381 28.51296046 -28.4375 26.8125 C-30.07041992 25.9452832 -30.07041992 25.9452832 -31.73632812 25.06054688 C-32.77080078 24.49013672 -33.80527344 23.91972656 -34.87109375 23.33203125 C-36.30859985 22.55436401 -36.30859985 22.55436401 -37.77514648 21.76098633 C-40 20 -40 20 -41.07055664 17.54174805 C-41 15 -41 15 -39.47900391 12.84643555 C-36.52558602 10.64664242 -33.83196322 9.6160942 -30.3359375 8.45703125 C-29.70265533 8.24310226 -29.06937317 8.02917328 -28.41690063 7.8087616 C-26.40647713 7.13213712 -24.39112056 6.4719314 -22.375 5.8125 C-20.35308082 5.1387673 -18.33228281 4.46176055 -16.31167603 3.78410339 C-14.48478956 3.17339768 -12.65529468 2.57051148 -10.82568359 1.96801758 C-6.7900527 0.58549844 -4.3602415 -0.09478786 0 0 Z " fill="#F49A00" transform="translate(301,257)"/>
<path d="M0 0 C6.61341312 3.85574463 11.13844815 9.21431013 13.31640625 16.58203125 C14.12317157 21.90501896 13.19015233 27.18802134 10.71875 31.97265625 C7.66785622 36.08202339 3.54285551 38.67313944 -1.3046875 40.08203125 C-7.80694003 40.84247865 -13.78902927 40.98335048 -19.3046875 37.08203125 C-24.80408039 32.22210265 -27.77136425 27.8860746 -28.37109375 20.5546875 C-28.22079208 14.9581605 -26.42967141 9.9986705 -23.6171875 5.20703125 C-17.07022975 -0.80909208 -8.58258211 -3.4184861 0 0 Z M-14.3046875 14.08203125 C-15.70926487 16.89118599 -15.55363907 18.97013659 -15.3046875 22.08203125 C-14.3832483 24.50507493 -14.3832483 24.50507493 -12.3046875 26.08203125 C-8.79795492 26.97465409 -6.38715004 27.45234738 -2.9296875 26.26953125 C-1.15380506 25.16217398 -1.15380506 25.16217398 -0.3046875 23.08203125 C0.18256499 18.07081741 0.18256499 18.07081741 -1.9921875 13.70703125 C-6.78979257 10.3357412 -9.63809976 10.58209044 -14.3046875 14.08203125 Z " fill="#F49B00" transform="translate(206.3046875,80.91796875)"/>
<path d="M0 0 C1.08539063 -0.01224609 2.17078125 -0.02449219 3.2890625 -0.03710938 C9.72771675 -0.0487736 15.39967983 0.52959894 21.625 2.1875 C21.625 2.5175 21.625 2.8475 21.625 3.1875 C20.51427124 3.26266846 20.51427124 3.26266846 19.38110352 3.33935547 C15.98270903 3.57336155 12.58514452 3.81785499 9.1875 4.0625 C8.02283203 4.14113281 6.85816406 4.21976562 5.65820312 4.30078125 C-6.79600252 5.21292025 -15.53910994 6.7050814 -24.375 16.1875 C-24.86355469 16.67089844 -25.35210937 17.15429688 -25.85546875 17.65234375 C-33.81336624 25.98828863 -39.21095696 36.70240929 -44.94140625 46.62109375 C-45.34246582 47.3080835 -45.74352539 47.99507324 -46.15673828 48.70288086 C-46.90840504 49.99360732 -47.65081651 51.28978367 -48.38232422 52.59204102 C-49.79702669 55.0215504 -51.0602204 56.94935688 -53.31640625 58.65625 C-56.05097476 59.3619451 -57.69587963 59.05947786 -60.375 58.1875 C-66.83306355 53.89525044 -72.7310532 47.33642956 -77.375 41.1875 C-77.375 40.1975 -77.375 39.2075 -77.375 38.1875 C-70.61325503 34.27810403 -70.61325503 34.27810403 -66.8125 34 C-62.92417804 35.8943107 -60.2530592 39.01085253 -57.375 42.1875 C-55.09032894 39.24690725 -53.04279827 36.18159468 -51.01342773 33.06079102 C-33.01295008 5.48092873 -33.01295008 5.48092873 -19.375 1.1875 C-12.93533696 -0.0285002 -6.53841999 0.0038552 0 0 Z " fill="#F49B00" transform="translate(186.375,-0.1875)"/>
<path d="M0 0 C3.0625 0.1875 3.0625 0.1875 5.0625 2.1875 C5.2578125 5.2265625 5.2578125 5.2265625 5.1875 8.8125 C5.16945313 10.00101563 5.15140625 11.18953125 5.1328125 12.4140625 C5.10960938 13.32929688 5.08640625 14.24453125 5.0625 15.1875 C5.85914063 14.52041016 5.85914063 14.52041016 6.671875 13.83984375 C7.37828125 13.27394531 8.0846875 12.70804688 8.8125 12.125 C9.50859375 11.55652344 10.2046875 10.98804688 10.921875 10.40234375 C13.0625 9.1875 13.0625 9.1875 15.21875 9.390625 C17.7651681 10.49119554 18.69663234 11.79723159 20.0625 14.1875 C20.0625 15.5075 20.0625 16.8275 20.0625 18.1875 C18.1640625 19.890625 18.1640625 19.890625 15.6875 21.4375 C14.87539062 21.95828125 14.06328125 22.4790625 13.2265625 23.015625 C11.0625 24.1875 11.0625 24.1875 9.0625 24.1875 C11.59999418 26.93645203 14.22846262 28.98460247 17.3125 31.0625 C20.97773132 33.74670286 20.97773132 33.74670286 21.6875 37.4375 C21.0625 40.1875 21.0625 40.1875 19.0625 42.1875 C13.05428555 42.1875 10.22428737 39.09958013 6.0625 35.1875 C6.3925 39.4775 6.7225 43.7675 7.0625 48.1875 C2.0625 49.1875 2.0625 49.1875 -0.171875 48.6640625 C-2.90598643 46.37757108 -2.78054812 44.02159101 -3.1875 40.5625 C-3.33703125 39.37398437 -3.4865625 38.18546875 -3.640625 36.9609375 C-3.73859375 36.04570312 -3.8365625 35.13046875 -3.9375 34.1875 C-4.39640625 34.56003906 -4.8553125 34.93257812 -5.328125 35.31640625 C-5.94171875 35.78949219 -6.5553125 36.26257813 -7.1875 36.75 C-7.79078125 37.22566406 -8.3940625 37.70132813 -9.015625 38.19140625 C-10.9375 39.1875 -10.9375 39.1875 -13.09375 38.94921875 C-14.9375 38.1875 -14.9375 38.1875 -16.1875 36.4375 C-17.07435891 33.77692326 -17.26052967 31.9800065 -16.9375 29.1875 C-15.1875 27.38671875 -15.1875 27.38671875 -12.9375 25.875 C-12.195 25.36324219 -11.4525 24.85148437 -10.6875 24.32421875 C-10.11 23.94910156 -9.5325 23.57398438 -8.9375 23.1875 C-9.59878906 22.61902344 -10.26007813 22.05054688 -10.94140625 21.46484375 C-17.75563876 15.23320211 -17.75563876 15.23320211 -18.3125 12.03125 C-18 10.125 -18 10.125 -16.9375 7.1875 C-14.875 6.25 -14.875 6.25 -11.9375 6.1875 C-9.30982162 8.26141145 -7.12428905 10.66040372 -4.9375 13.1875 C-4.87691406 12.33285156 -4.81632812 11.47820312 -4.75390625 10.59765625 C-4.67011719 9.49292969 -4.58632812 8.38820312 -4.5 7.25 C-4.41878906 6.14785156 -4.33757812 5.04570312 -4.25390625 3.91015625 C-3.8170136 0.15072197 -3.81662275 0.24361422 0 0 Z " fill="#F49B00" transform="translate(83.9375,174.8125)"/>
<path d="M0 0 C3 1.1875 3 1.1875 5 3.1875 C4.8807725 8.19505494 2.82943554 11.3758178 0.05859375 15.35546875 C-1.25015418 17.26777655 -1.25015418 17.26777655 -1 20.1875 C1.19407631 21.85470849 1.19407631 21.85470849 3.9375 23.3125 C8.97087379 26.15837379 8.97087379 26.15837379 10 27.1875 C9.62056512 31.28539669 9.30694043 33.72708935 7 37.1875 C0.68368172 36.78433075 -3.64993984 34.47517869 -9 31.1875 C-10.1254191 32.79137267 -11.25031972 34.39560916 -12.375 36 C-13.00148437 36.89332031 -13.62796875 37.78664062 -14.2734375 38.70703125 C-15.53550239 40.52017878 -16.77458808 42.34938211 -18 44.1875 C-22.21912747 43.7080537 -24.79663178 43.02124881 -28 40.1875 C-27.71926609 34.71318876 -25.38776719 31.44398732 -22.27734375 27.140625 C-20.81755348 25.2974851 -20.81755348 25.2974851 -21 23.1875 C-22.78398614 21.90743203 -24.62853906 20.71089649 -26.5 19.5625 C-27.5209375 18.93085938 -28.541875 18.29921875 -29.59375 17.6484375 C-30.3878125 17.16632813 -31.181875 16.68421875 -32 16.1875 C-31.70842276 12.39699594 -31.45454034 9.83684335 -29.25 6.6875 C-27 5.1875 -27 5.1875 -24.6875 5.125 C-21.56815473 6.35822952 -19.25785646 8.04491328 -16.6484375 10.12890625 C-14.9057934 11.45767721 -14.9057934 11.45767721 -12 11.1875 C-10.14296053 8.76277749 -10.14296053 8.76277749 -8.4375 5.75 C-4.3268239 -1.17184814 -4.3268239 -1.17184814 0 0 Z " fill="#F49B00" transform="translate(184,134.8125)"/>
<path d="M0 0 C12.2679988 5.98233458 20.06593269 14.96492231 26 27 C27.31529747 29.57209138 28.65355463 32.1315949 30 34.6875 C30.33644531 35.33130615 30.67289062 35.9751123 31.01953125 36.63842773 C33.31119853 40.94252086 35.83764859 44.73864192 39.06640625 48.38671875 C40 50 40 50 39.77734375 52.01953125 C39 54 39 54 37 57 C33.96247259 56.68631386 32.37246101 56.34855564 30.11328125 54.234375 C25.5303965 47.91178345 22.23884663 41.46442725 19 34.375 C14.94918419 25.53418535 11.14967156 18.14702151 2.625 12.9375 C0.15065068 11.88788787 0.15065068 11.88788787 -2 12 C-1.36934845 17.7809725 -0.34844868 23.3443706 1 29 C-8.15472527 28.37934066 -8.15472527 28.37934066 -12 24 C-16.02434982 17.13881341 -17.76946405 8.83619794 -16 1 C-10.85329946 -3.42053468 -6.0003288 -1.98168754 0 0 Z " fill="#F49B00" transform="translate(301,63)"/>
<path d="M0 0 C-0.26110417 4.43877082 -1.99124171 6.71440189 -5.12109375 9.640625 C-9.68080481 12.93954277 -15.38893348 14.54300644 -21 14 C-19.35 11.69 -17.7 9.38 -16 7 C-27.26517669 10.26791612 -40.0785931 14.87534141 -48 24 C-49.46425533 26.68479876 -49.46425533 26.68479876 -50 29 C-46.31733897 28.40049704 -42.65456815 27.75241109 -39 27 C-39.94900744 33.04992241 -39.94900744 33.04992241 -42.66796875 35.5078125 C-48.16129674 39.05669364 -53.58388306 41.15721369 -60.1875 40.9375 C-64.2944111 41.00482641 -65.15212386 41.24886699 -68 44 C-68.83279467 46.11370433 -68.83279467 46.11370433 -69.25 48.5 C-72.10395895 59.1092822 -79.98223624 67.26898647 -89.125 72.9375 C-92.29782102 74.11006429 -93.82198174 74.02818238 -97 73 C-97.75003869 66.99969046 -96.25161651 64.24839976 -92.60546875 59.50390625 C-91 58 -91 58 -88 58 C-88.495 60.475 -88.495 60.475 -89 63 C-84.98815639 60.8826381 -82.43066796 58.85554228 -80 55 C-79.83345677 53.6482241 -79.69000953 52.29351477 -79.5625 50.9375 C-78.53327803 45.02937004 -74.15482225 41.93846273 -69.78540039 38.24975586 C-66.24624933 35.26624755 -66.24624933 35.26624755 -63.5625 31.52734375 C-61.22659934 27.74902444 -57.95724315 25.46231001 -54.4375 22.8125 C-53.31444458 21.9625647 -53.31444458 21.9625647 -52.16870117 21.09545898 C-38.79312088 11.20734677 -17.33278569 -3.80475783 0 0 Z " fill="#F49B00" transform="translate(132,11)"/>
<path d="M0 0 C4.51342108 0.66591459 8.56029513 1.94261243 12.8125 3.5625 C12.49018548 8.88068953 9.60879083 12.11275854 5.8125 15.5625 C-4.78279948 22.7115775 -14.67594743 22.45956463 -26.97460938 20.140625 C-27.93173828 19.94984375 -28.88886719 19.7590625 -29.875 19.5625 C-30.87466797 19.37171875 -31.87433594 19.1809375 -32.90429688 18.984375 C-35.33391688 18.51937596 -37.7613762 18.04534904 -40.1875 17.5625 C-40.1875 19.5425 -40.1875 21.5225 -40.1875 23.5625 C-46.12029775 24.30409972 -49.59786665 21.97371397 -54.1875 18.5625 C-54.8475 17.9025 -55.5075 17.2425 -56.1875 16.5625 C-56.125 13.125 -56.125 13.125 -55.1875 9.5625 C-49.49926478 5.0983154 -43.06235174 5.90873532 -36.1875 6.5625 C-33.54522077 7.10721199 -30.96482981 7.80948239 -28.375 8.5625 C-22.64169971 10.2295032 -18.13346792 11.32972167 -12.1875 10.5625 C-8.6811528 8.5366105 -7.33979122 6.82647145 -5.3125 3.3125 C-3.1875 0.5625 -3.1875 0.5625 0 0 Z " fill="#F49B00" transform="translate(206.1875,345.4375)"/>
<path d="M0 0 C1.32 0 2.64 0 4 0 C4.6483289 2.22844214 5.29356369 4.4577846 5.9375 6.6875 C6.29714844 7.92886719 6.65679688 9.17023438 7.02734375 10.44921875 C7.80726431 13.29639862 8.47287216 16.09802254 9 19 C9.66 19 10.32 19 11 19 C10.7834375 18.20335937 10.566875 17.40671875 10.34375 16.5859375 C10.0653125 15.52632812 9.786875 14.46671875 9.5 13.375 C9.2215625 12.33085937 8.943125 11.28671875 8.65625 10.2109375 C8.00881404 7.04312582 7.8838708 4.22258533 8 1 C9.65 1.33 11.3 1.66 13 2 C13.67099984 4.60311992 14.33695338 7.20735398 15 9.8125 C15.19078125 10.55048828 15.3815625 11.28847656 15.578125 12.04882812 C16.35262914 15.10535341 17 17.83373478 17 21 C17.763125 21.0825 18.52625 21.165 19.3125 21.25 C22 22 22 22 23.75 23.5625 C25.52724802 27.02813365 25.67708592 30.125031 26 34 C24.515 34.495 24.515 34.495 23 35 C24.90973271 40.32714913 25.95927092 42.227599 31 45 C32.875 47.375 32.875 47.375 34 50 C33.80792969 50.78246094 33.61585937 51.56492187 33.41796875 52.37109375 C32.88732588 55.70868865 33.6690407 56.86467473 35.4375 59.6875 C38 63.84196185 38 63.84196185 38 66 C35.73828125 65.84765625 35.73828125 65.84765625 33 65 C30.98046875 62.49609375 30.98046875 62.49609375 29.1875 59.4375 C28.58292969 58.42558594 27.97835937 57.41367187 27.35546875 56.37109375 C26.90816406 55.58863281 26.46085937 54.80617188 26 54 C25.67 54.33 25.34 54.66 25 55 C25.3609375 55.54269531 25.721875 56.08539063 26.09375 56.64453125 C26.5578125 57.35996094 27.021875 58.07539063 27.5 58.8125 C27.9640625 59.52019531 28.428125 60.22789062 28.90625 60.95703125 C30 63 30 63 30 66 C28.234375 65.83984375 28.234375 65.83984375 26 65 C24.078125 62.56640625 24.078125 62.56640625 22.25 59.5625 C21.63640625 58.57378906 21.0228125 57.58507812 20.390625 56.56640625 C19 54 19 54 19 52 C18.07767578 51.62101562 18.07767578 51.62101562 17.13671875 51.234375 C13.55730718 49.16656137 12.45559949 45.74396983 11 42 C10.3125 38.8125 10.3125 38.8125 10 36 C9.67364302 34.33195323 9.34274406 32.66475686 9 31 C8.01 30.67 7.02 30.34 6 30 C2.17119192 20.77682676 1.11731626 9.86962695 0 0 Z M13 32 C13.39595843 33.48484412 13.81750706 34.9628831 14.25 36.4375 C14.48203125 37.26121094 14.7140625 38.08492188 14.953125 38.93359375 C15.80770679 41.19995468 15.80770679 41.19995468 18.109375 41.78515625 C18.73328125 41.85605469 19.3571875 41.92695313 20 42 C18.85569823 38.12697862 17.76679902 34.99736561 15 32 C14.34 32 13.68 32 13 32 Z " fill="#F49A00" transform="translate(7,223)"/>
<path d="M0 0 C1.58323688 -0.027193 3.16661062 -0.04648306 4.75 -0.0625 C6.07257813 -0.07990234 6.07257813 -0.07990234 7.421875 -0.09765625 C10 0 10 0 11.81640625 0.48828125 C14.50697115 1.11880719 17.13209251 1.12774503 19.88549805 1.18701172 C48.88034277 1.98038004 75.23136305 17.87266232 97 36 C97.89847656 36.68835937 98.79695313 37.37671875 99.72265625 38.0859375 C102.11297718 40.09495509 102.67415257 40.95875734 103 44 C98.05547355 43.44639504 94.11521376 41.833724 89.75 39.5625 C89.06325195 39.21123047 88.37650391 38.85996094 87.66894531 38.49804688 C49.64537642 18.87850165 49.64537642 18.87850165 40.546875 8.3125 C38.42512272 6.51222534 37.04969618 6.69349147 34.3125 6.8125 C32.889375 6.874375 31.46625 6.93625 30 7 C33.63 8.98 37.26 10.96 41 13 C41 13.66 41 14.32 41 15 C35.45949887 14.43174347 30.96284034 12.37113483 26 10 C25.01 11.485 25.01 11.485 24 13 C19.02906176 12.58846263 14.55491614 12.20399168 10 10 C10.33 8.35 10.66 6.7 11 5 C9.6696875 4.566875 9.6696875 4.566875 8.3125 4.125 C5.49617576 3.16851252 2.74916844 2.13201054 0 1 C0 0.67 0 0.34 0 0 Z M59 15 C62.49095793 18.9753055 66.56074985 21.27725909 71.125 23.8125 C71.85332031 24.23208984 72.58164062 24.65167969 73.33203125 25.08398438 C75.18505269 26.12352598 77.08964394 27.07001348 79 28 C79.66 27.67 80.32 27.34 81 27 C70.50053435 19.14822385 70.50053435 19.14822385 59 15 Z M81 28 C81.33 28.66 81.66 29.32 82 30 C82.66 29.67 83.32 29.34 84 29 C83.01 28.67 82.02 28.34 81 28 Z " fill="#F49B00" transform="translate(216,6)"/>
<path d="M0 0 C5.85272256 0.45020943 10.08220119 3.03839227 15 6 C15 7.32 15 8.64 15 10 C12.08683772 12.44990712 8.98256429 14.47029387 5.8203125 16.5859375 C2.68232879 19.27191248 1.90390848 21.02966779 1 25 C4.63 26.98 8.26 28.96 12 31 C12 32.32 12 33.64 12 35 C9.33758641 35.7765373 6.74863493 36.15032919 4 36.4375 C-0.31206862 36.90095665 -0.31206862 36.90095665 -4 39 C-5.18511083 41.77135894 -5.18511083 41.77135894 -5 45 C-3.70427617 47.02456848 -2.3726682 49.02678947 -1 51 C-1.375 53.1796875 -1.375 53.1796875 -2 55 C-7.24773068 52.66912211 -11.10872842 50.34906824 -15 46 C-15.66 45.34 -16.32 44.68 -17 44 C-17.55091285 40.94388345 -17.53957491 38.05759117 -17 35 C-13.6685934 31.87049683 -9.37101124 31.11417934 -5 30 C-8.3 28.35 -11.6 26.7 -15 25 C-15 20 -15 20 -13.75 18.41015625 C-13.1725 17.96542969 -12.595 17.52070312 -12 17.0625 C-11.05253906 16.31226563 -11.05253906 16.31226563 -10.0859375 15.546875 C-8.65844698 14.48828652 -7.22588604 13.43651069 -5.7890625 12.390625 C-5.07492188 11.86984375 -4.36078125 11.3490625 -3.625 10.8125 C-2.62339844 10.11060547 -2.62339844 10.11060547 -1.6015625 9.39453125 C0.28555828 7.98967175 0.28555828 7.98967175 1 5 C0.34 4.67 -0.32 4.34 -1 4 C-0.67 2.68 -0.34 1.36 0 0 Z " fill="#F49B00" transform="translate(163,41)"/>
<path d="M0 0 C5.31971638 4.08257303 7.92194597 9.76583792 10 16 C11.10705575 33.94707687 11.10705575 33.94707687 5.7109375 40.5859375 C3.09849944 43.11455402 0.98657561 44.00259067 -2.5625 44.6875 C-6.27819308 43.94436138 -7.75144546 42.97492912 -9.9375 39.8828125 C-15.46376642 30.08994332 -16.05994206 18.15472962 -13.73828125 7.3203125 C-12.75690187 4.2359773 -11.35338628 2.20629964 -9 0 C-5.77509551 -1.61245225 -3.43772273 -0.81573082 0 0 Z M-6 12 C-8.95206601 15.05286827 -9.40945371 17.31961705 -9.375 21.5 C-9.38273438 22.4384375 -9.39046875 23.376875 -9.3984375 24.34375 C-8.94552484 27.36316774 -8.00855276 28.74702018 -6 31 C-3.54775306 30.89386164 -3.54775306 30.89386164 -1 30 C1.3918982 26.4121527 1.19577586 23.04059826 0.55078125 18.9375 C-0.29113729 15.97585749 -1.81658161 14.11725419 -4 12 C-4.66 12 -5.32 12 -6 12 Z " fill="#F49A00" transform="translate(24,163)"/>
<path d="M0 0 C2.59696996 1.36192318 4.82621557 2.85225985 7.15576172 4.63208008 C8.43773437 5.60371094 8.43773437 5.60371094 9.74560547 6.5949707 C10.62603516 7.27108398 11.50646484 7.94719727 12.41357422 8.64379883 C14.16042882 9.97393701 15.90781484 11.3033776 17.65576172 12.63208008 C18.48430664 13.2632373 19.31285156 13.89439453 20.16650391 14.54467773 C23.2499777 16.86712125 26.38273235 19.10845108 29.53857422 21.33129883 C29.18158919 23.97298804 28.78626622 25.94020619 27.35107422 28.20629883 C25.53857422 29.33129883 25.53857422 29.33129883 22.93310547 29.21020508 C18.48860314 28.0594421 15.21494864 25.90806596 11.41357422 23.39379883 C10.01610016 22.48736382 8.61769153 21.58236771 7.21826172 20.67895508 C6.60708496 20.27684814 5.9959082 19.87474121 5.36621094 19.46044922 C2.54749373 17.71005859 2.54749373 17.71005859 -0.46142578 16.33129883 C-3.5666106 17.66367849 -6.34167146 19.20569129 -9.24072266 20.92114258 C-12.22436338 22.57550216 -13.85233439 23.45890177 -17.25830078 22.74536133 C-20.26487768 20.81560807 -21.67285373 18.37849565 -23.46142578 15.33129883 C-22.1368171 12.24653772 -20.93491533 10.65033976 -18.12548828 8.82348633 C-17.47322266 8.39422852 -16.82095703 7.9649707 -16.14892578 7.52270508 C-15.46830078 7.08829102 -14.78767578 6.65387695 -14.08642578 6.20629883 C-13.41353516 5.76415039 -12.74064453 5.32200195 -12.04736328 4.86645508 C-10.19840044 3.66171748 -8.35287879 2.46822377 -6.46142578 1.33129883 C-5.51468994 0.70505615 -5.51468994 0.70505615 -4.54882812 0.06616211 C-2.46142578 -0.66870117 -2.46142578 -0.66870117 0 0 Z " fill="#F49B00" transform="translate(75.46142578125,249.668701171875)"/>
<path d="M0 0 C2.8125 2.5 2.8125 2.5 5 5 C3.56550459 8.58407743 1.9835855 9.93530985 -1.33203125 11.84765625 C-2.64457886 12.62351074 -2.64457886 12.62351074 -3.98364258 13.41503906 C-4.91716553 13.95870117 -5.85068848 14.50236328 -6.8125 15.0625 C-15.63358922 20.36398435 -23.55186117 25.90184713 -31 33 C-31.76441406 33.72316406 -32.52882813 34.44632813 -33.31640625 35.19140625 C-38.45463321 40.48563251 -41.45693464 46.34759536 -44.5546875 52.9609375 C-46 56 -46 56 -48 59 C-48.48013056 44.72945294 -45.75144505 33.82880017 -36 23 C-28.07564544 14.53436439 -12.09132805 -1.74179935 0 0 Z " fill="#F49B00" transform="translate(48,122)"/>
<path d="M0 0 C1.48034764 0.47550561 2.95925021 0.95551216 4.4375 1.4375 C5.26121094 1.70433594 6.08492187 1.97117187 6.93359375 2.24609375 C9 3 9 3 10 4 C10.06537287 13.04760506 9.50999952 25.25086072 3.68579102 32.67529297 C2 34 2 34 0.06567383 34.15991211 C-5.52116824 33.33630366 -10.88780207 32.13004119 -16.3125 30.5625 C-17.09689453 30.34529297 -17.88128906 30.12808594 -18.68945312 29.90429688 C-22.34018656 28.87142157 -25.63194638 27.77451534 -29 26 C-28.42105044 22.09209045 -26.85471656 19.70446832 -24 17 C-17.15989858 15.69019335 -10.42908383 18.83441387 -4 21 C-2.55838815 12.67984938 -2.55838815 12.67984938 -1.4375 4.3125 C-1 1 -1 1 0 0 Z " fill="#F49B00" transform="translate(220,27)"/>
<path d="M0 0 C6.75 1.125 6.75 1.125 9 4 C5.04901665 9.37140668 1.04638726 14.70011876 -3 20 C-3.51191895 20.67643555 -4.02383789 21.35287109 -4.55126953 22.04980469 C-5.96981135 23.90665213 -7.41616442 25.73722583 -8.875 27.5625 C-9.30208252 28.12799561 -9.72916504 28.69349121 -10.16918945 29.27612305 C-11.4296875 30.81640625 -11.4296875 30.81640625 -14 33 C-17.16453844 32.90328428 -19.18780205 32.40609897 -22 31 C-20.6302836 27.00499382 -18.74277578 24.19990508 -16 21 C-18.92903058 18.66635648 -21.88568203 16.95039164 -25.25 15.3125 C-26.14203125 14.87550781 -27.0340625 14.43851562 -27.953125 13.98828125 C-28.62859375 13.66214844 -29.3040625 13.33601563 -30 13 C-28.87548273 10.0280615 -27.77706209 7.66559313 -26 5 C-19.42876964 5.85840397 -14.057367 8.37514097 -8 11 C-5.36 7.37 -2.72 3.74 0 0 Z " fill="#F49B00" transform="translate(235,303)"/>
<path d="M0 0 C0.7425 0.0825 1.485 0.165 2.25 0.25 C4.92790729 5.60581458 3.79835785 13.08853566 2.37890625 18.68359375 C-1.05579477 28.24445003 -6.30285794 36.43085769 -14.75 42.25 C-16.07 42.25 -17.39 42.25 -18.75 42.25 C-20.53628216 38.67743569 -19.57438872 35.00554861 -18.75 31.25 C-8.36032177 0.76002925 -8.36032177 0.76002925 0 0 Z M-6.75 12.25 C-11.43216428 17.08320184 -13.75 22.57826948 -13.75 29.25 C-9.94850864 27.79601078 -8.75635493 26.05320598 -7 22.4375 C-6.57203125 21.58542969 -6.1440625 20.73335937 -5.703125 19.85546875 C-4.70555206 17.12849681 -4.56400224 15.12779864 -4.75 12.25 C-5.41 12.25 -6.07 12.25 -6.75 12.25 Z " fill="#F49B00" transform="translate(29.75,92.75)"/>
<path d="M0 0 C4.98898842 1.17387963 6.98658122 4.18312389 9.86328125 8.125 C11 10 11 10 11 12 C10.34 12 9.68 12 9 12 C12.21413554 17.63499508 15.20049212 21.34472261 20.56787109 25.09570312 C26.3098681 29.50781878 29.08117969 34.97202288 32.25 41.375 C32.765625 42.37789062 33.28125 43.38078125 33.8125 44.4140625 C36.562947 49.82989113 39.19116603 55.19338079 41 61 C40.67 61.99 40.34 62.98 40 64 C30.91650831 58.40834408 26.60360821 50.43144392 22.12109375 41.02441406 C18.86492039 34.20241164 15.58352247 29.03346919 10.25 23.5703125 C4.81722308 17.36411942 -0.31126071 9.31406709 -1 1 C-0.67 0.67 -0.34 0.34 0 0 Z M26 38 C27.16142685 42.35535069 28.07699505 44.64619703 32 47 C30.83857315 42.64464931 29.92300495 40.35380297 26 38 Z " fill="#F49A00" transform="translate(328,60)"/>
<path d="M0 0 C1.32 0 2.64 0 4 0 C4.66 8.58 5.32 17.16 6 26 C7.32 25.01 8.64 24.02 10 23 C11.32 23.66 12.64 24.32 14 25 C14.88590604 42.07829978 14.88590604 42.07829978 10 49 C8.046875 49.94921875 8.046875 49.94921875 6 50 C2.08139005 47.3412741 1.69693633 43.06536533 0.6953125 38.7109375 C-4.99166974 8.35906599 -4.99166974 8.35906599 0 0 Z " fill="#F49A00" transform="translate(363,193)"/>
<path d="M0 0 C0.99 0 1.98 0 3 0 C4.6484375 1.79296875 4.6484375 1.79296875 6.375 4.1875 C8.43316756 6.98573207 10.37812584 9.47233837 13 11.75 C15 14 15 14 14.87890625 16.21484375 C13.75824636 19.76609041 11.94122748 22.70827971 9.9375 25.8125 C9.56044922 26.40998047 9.18339844 27.00746094 8.79492188 27.62304688 C7.87010434 29.08636577 6.93597935 30.54379523 6 32 C1.18191307 29.27637354 -2.25140717 26.01634946 -6 22 C-6.66 21.29875 -7.32 20.5975 -8 19.875 C-9.42947478 17.19473479 -8.81861189 15.90607221 -8 13 C-6.90213084 10.87960565 -5.72997371 8.7965956 -4.5 6.75 C-3.8709375 5.69296875 -3.241875 4.6359375 -2.59375 3.546875 C-1 1 -1 1 0 0 Z " fill="#F49B00" transform="translate(44,209)"/>
<path d="M0 0 C-7.2710893 3.16670287 -14.53204136 5.33544811 -22.25 7.125 C-23.35899658 7.38361816 -24.46799316 7.64223633 -25.6105957 7.90869141 C-37.34435749 10.59723054 -48.43650779 12.14969217 -60.5 12.25 C-61.44512451 12.25950684 -62.39024902 12.26901367 -63.36401367 12.27880859 C-68.30746773 12.25493358 -72.3667728 11.94595542 -77 10 C-76.67 9.01 -76.34 8.02 -76 7 C-73.28295504 5.64147752 -71.27768785 5.98901156 -68.2421875 6.11328125 C-52.51364887 6.99636337 -52.51364887 6.99636337 -37.5625 3 C-28.83715338 -1.02780866 -20.63870216 -0.41185835 -11.19433594 -0.01025391 C-7.04382137 0.00914102 -4.00685579 -1.3356186 0 0 Z " fill="#F49B00" transform="translate(255,368)"/>
<path d="M0 0 C1.98 0.66 3.96 1.32 6 2 C6 6.71906188 4.71245796 8.27037031 2 12 C5.63 13.98 9.26 15.96 13 18 C13 21 13 21 11.375 23.25 C9 25 9 25 6.3125 25 C2.02146221 23.70459237 -1.96045675 21.93000399 -6 20 C-6.515625 20.845625 -7.03125 21.69125 -7.5625 22.5625 C-8.366875 23.366875 -9.17125 24.17125 -10 25 C-13.6875 24.9375 -13.6875 24.9375 -17 24 C-17.33 23.34 -17.66 22.68 -18 22 C-12 14.66666667 -6 7.33333333 0 0 Z " fill="#F49A00" transform="translate(245,313)"/>
<path d="M0 0 C1.32 0.33 2.64 0.66 4 1 C4.19335938 2.15757812 4.38671875 3.31515625 4.5859375 4.5078125 C4.84871147 6.04691717 5.11174612 7.58597734 5.375 9.125 C5.50132812 9.88554687 5.62765625 10.64609375 5.7578125 11.4296875 C6.50756511 15.77825262 7.47199888 19.84117955 9 24 C9.99 23.67 10.98 23.34 12 23 C13.26723437 25.53446873 13.12941328 27.32226954 13.1328125 30.15625 C13.13410156 31.17847656 13.13539063 32.20070312 13.13671875 33.25390625 C13.13285156 34.32511719 13.12898438 35.39632812 13.125 36.5 C13.12886719 37.57121094 13.13273437 38.64242187 13.13671875 39.74609375 C13.13542969 40.76832031 13.13414062 41.79054687 13.1328125 42.84375 C13.13168457 43.78412109 13.13055664 44.72449219 13.12939453 45.69335938 C13 48 13 48 12 50 C11.01 50 10.02 50 9 50 C6.4372796 42.88133223 4.80320005 35.79811383 3.375 28.375 C3.1584375 27.281875 2.941875 26.18875 2.71875 25.0625 C-0.15977787 10.3855616 -0.15977787 10.3855616 -0.0625 4.0625 C-0.05347656 3.29035156 -0.04445313 2.51820313 -0.03515625 1.72265625 C-0.02355469 1.15417969 -0.01195312 0.58570313 0 0 Z " fill="#F49B00" transform="translate(367,159)"/>
<path d="M0 0 C1.85772162 0.08984301 3.71247985 0.24611861 5.5625 0.4375 C7.08037109 0.59025391 7.08037109 0.59025391 8.62890625 0.74609375 C9.80259766 0.87177734 9.80259766 0.87177734 11 1 C12.4159726 5.79325858 11.62199947 9.88335339 10.75 14.6875 C10.62753906 15.45900391 10.50507813 16.23050781 10.37890625 17.02539062 C10.0238086 19.03819659 9.52046103 21.02348729 9 23 C5.77208445 25.1519437 4.71599191 25.20086443 1 25 C-1.13456603 19.77748468 -1.27189646 15.22657277 -1.1875 9.6875 C-1.18685547 8.86443359 -1.18621094 8.04136719 -1.18554688 7.19335938 C-1.14063798 1.14063798 -1.14063798 1.14063798 0 0 Z " fill="#F49A00" transform="translate(245,42)"/>
<path d="M0 0 C3.36652965 0.04824644 4.70205954 0.28653225 7.75 1.9375 C10.21405862 4.86356961 10.75 6.49427121 10.75 10.3125 C9.52798287 13.14243441 8.41886714 14.78696153 6 16.6875 C2.60887913 17.62947802 0.14008797 17.16002199 -3.25 16.3125 C-6.21326994 14.20701873 -7.08222327 12.83820041 -8.1875 9.375 C-8.26191483 5.72867314 -7.39714509 4.20288762 -5.25 1.3125 C-3.69014791 -0.24735209 -2.16093902 0.06797656 0 0 Z " fill="#F49B00" transform="translate(125.25,138.6875)"/>
<path d="M0 0 C2.83762049 1.39538035 5.14151014 2.93447889 7.37890625 5.171875 C7.50390625 8.796875 7.50390625 8.796875 7.37890625 12.171875 C3.96142403 14.27494098 1.358051 14.57791018 -2.62109375 14.171875 C-5.49609375 13.046875 -5.49609375 13.046875 -7.62109375 11.171875 C-7.93359375 7.984375 -7.93359375 7.984375 -7.62109375 5.171875 C-12.41409508 3.78035848 -16.77245157 4.48524811 -21.62109375 5.171875 C-21.62109375 3.851875 -21.62109375 2.531875 -21.62109375 1.171875 C-15.06713005 -1.91379529 -6.90650653 -2.18208552 0 0 Z " fill="#F49B00" transform="translate(194.62109375,15.828125)"/>
<path d="M0 0 C2.4375 1.6875 2.4375 1.6875 4 4 C4.63656938 7.73984509 4.25584708 9.50962644 2.5 12.875 C-0.35812196 15.30440367 -2.27819584 15.73997051 -6.0234375 15.48046875 C-9.57637321 14.61681046 -11.02953982 12.98747189 -13 10 C-13 6.34256132 -12.81308469 4.06054525 -10.5625 1.125 C-6.84795598 -1.5494717 -4.41676843 -0.98996534 0 0 Z " fill="#F49B00" transform="translate(141,110)"/>
<path d="M0 0 C1.2375 -0.04125 2.475 -0.0825 3.75 -0.125 C4.79414063 -0.15980469 4.79414063 -0.15980469 5.859375 -0.1953125 C8 0 8 0 12 2 C10.68 7.94 9.36 13.88 8 20 C5.69 20.33 3.38 20.66 1 21 C-0.78889265 17.160598 -1.24622412 14.16029776 -1.1875 9.9375 C-1.18105469 8.91527344 -1.17460937 7.89304687 -1.16796875 6.83984375 C-1.02361581 4.39927201 -0.69892207 2.33160404 0 0 Z " fill="#F49A00" transform="translate(262,44)"/>
<path d="M0 0 C4.24705197 1.64090644 5.75272818 5.11404725 7.75 9.0625 C8.68385816 11.86407448 8.91354595 13.71697803 8.9375 16.625 C8.95167969 17.41003906 8.96585937 18.19507813 8.98046875 19.00390625 C8.75 21.0625 8.75 21.0625 6.75 23.0625 C3.82460865 22.96498695 2.79197238 22.10320049 0.6875 20.0625 C-2.4807116 15.15688204 -4.76916492 9.99605799 -4 4.0625 C-3.00524476 0.08347902 -3.00524476 0.08347902 0 0 Z " fill="#F49B00" transform="translate(349.25,123.9375)"/>
<path d="M0 0 C-0.14672556 4.84194348 -2.6161603 7.19948851 -5.9609375 10.3515625 C-10.38948872 13.93173226 -14.27487716 16 -20 16 C-20 12.18993509 -19.87830336 10.029229 -17.36328125 7.08203125 C-6.92696584 -2.24107718 -6.92696584 -2.24107718 0 0 Z " fill="#F49A00" transform="translate(303,326)"/>
<path d="M0 0 C-0.35989425 2.72575644 -0.75816562 3.78718575 -2.85546875 5.6328125 C-9.24802524 9.72319203 -14.21722602 12.37060828 -22 12 C-19.86812107 6.57339909 -15.62604046 4.17095201 -10.5625 1.75 C-6.90853083 0.18575902 -4.01787129 -0.41208936 0 0 Z " fill="#F49B00" transform="translate(273,347)"/>
<path d="M0 0 C2.62587906 2.62587906 2.85778351 4.77281623 3.6875 8.375 C3.95949219 9.51710937 4.23148437 10.65921875 4.51171875 11.8359375 C4.95830381 14.72980868 4.99155833 16.29816991 4 19 C2.1875 18.875 2.1875 18.875 0 18 C-3.19421263 13.26783315 -3.64259735 8.54590313 -4 3 C-3.01 3.33 -2.02 3.66 -1 4 C-0.67 2.68 -0.34 1.36 0 0 Z " fill="#F49B00" transform="translate(372,133)"/>
<path d="M0 0 C0 0.99 0 1.98 0 3 C-2.24923704 4.2930106 -4.49935185 5.58444977 -6.75 6.875 C-7.38421875 7.23980469 -8.0184375 7.60460937 -8.671875 7.98046875 C-10.44318556 8.99528209 -12.22139522 9.99802582 -14 11 C-14.72703125 11.43570312 -15.4540625 11.87140625 -16.203125 12.3203125 C-18.48555285 13.18366564 -19.73987895 12.80718609 -22 12 C-7.68299712 0 -7.68299712 0 0 0 Z " fill="#F49A00" transform="translate(298,344)"/>
</svg>
